# AST/ASF file generated using VICON BodyLanguage
# -----------------------------------------------
:version 1.10
:name VICON
:units
  mass 1.0
  length 0.45
  angle deg
:documentation
   .ast/.asf automatically generated from VICON data using
   VICON BodyBuilder and BodyLanguage model FoxedUp or BRILLIANT.MOD
:root
   order TX TY TZ RX RY RZ
   axis XYZ
   position 0 0 0  
   orientation 0 0 0 
:bonedata
  begin
     id 1 
     name lhipjoint
     direction 0.611804 -0.747784 0.257906 
     length 2.29243 
     axis 0 0 0  XYZ
  end
  begin
     id 2 
     name lfemur
     direction 0.34202 -0.939693 0  
     length 7.31159  
     axis 0 0 20  XYZ
    dof rx ry rz
    limits (-160.0 20.0)
           (-70.0 70.0)
           (-60.0 70.0)
  end
  begin
     id 3 
     name ltibia
     direction 0.34202 -0.939693 0   
     length 7.33391   
     axis 0 0 20   XYZ
    dof rx
    limits (-10.0 170.0)
  end
  begin
     id 4 
     name lfoot
     direction 0.122263 -0.335914 0.933924   
     length 1.76083   
     axis -90 7.62852e-016 20   XYZ
    dof rx rz
    limits (-45.0 90.0)
           (-70.0 20.0)
  end
  begin
     id 5 
     name ltoes
     direction 1.53533e-011 -4.2177e-011 1   
     length 0.879206   
     axis -90 7.62852e-016 20   XYZ
    dof rx
    limits (-90.0 20.0)
  end
  begin
     id 6 
     name rhipjoint
     direction -0.646469 -0.721248 0.248754   
     length 2.37677  
     axis 0 0 0  XYZ 
  end
  begin
     id 7 
     name rfemur
     direction -0.34202 -0.939693 0   
     length 7.18623   
     axis 0 0 -20   XYZ
    dof rx ry rz
    limits (-160.0 20.0)
           (-70.0 70.0)
           (-70.0 60.0)
  end
  begin
     id 8 
     name rtibia
     direction -0.34202 -0.939693 0   
     length 7.36567   
     axis 0 0 -20   XYZ
    dof rx
    limits (-10.0 170.0)
 end
 begin
     id 9 
     name rfoot
     direction -0.126681 -0.348054 0.928876   
     length 1.71902  
     axis -90 -7.62852e-016 -20   XYZ
    dof rx rz
    limits (-45.0 90.0)
           (-20.0 70.0)
  end
  begin
     id 10 
     name rtoes
     direction -1.53551e-011 -4.21898e-011 1   
     length 0.857792   
     axis -90 -7.62852e-016 -20   XYZ
    dof rx
    limits (-90.0 20.0)
  end
  begin
     id 11 
     name lowerback
     direction 0.0106509 0.999778 0.0181844   
     length 2.07668   
     axis 0 0 0   XYZ
    dof rx ry rz
    limits (-20.0 45.0)
           (-30.0 30.0)
           (-30.0 30.0)
  end
  begin
     id 12 
     name upperback
     direction -0.00456018 0.999989 -0.000590935   
     length 2.08011   
     axis 0 0 0   XYZ
    dof rx ry rz
    limits (-20.0 45.0)
           (-30.0 30.0)
           (-30.0 30.0)
  end
  begin
     id 13 
     name thorax
     direction -0.00910382 0.999916 -0.00923765   
     length 2.07397   
     axis 0 0 0   XYZ
    dof rx ry rz
    limits (-20.0 45.0)
           (-30.0 30.0)
           (-30.0 30.0)
  end
  begin
     id 14 
     name lowerneck
     direction 0.00171967 0.99778 0.0665733   
     length 1.67556   
     axis 0 0 0   XYZ
    dof rx ry rz
    limits (-20.0 45.0)
           (-30.0 30.0)
           (-30.0 30.0)
  end
  begin
     id 15 
     name upperneck
     direction -0.0143166 0.991302 -0.130828   
     length 1.68462   
     axis 0 0 0   XYZ
    dof rx ry rz
    limits (-20.0 45.0)
           (-30.0 30.0)
           (-30.0 30.0)
  end
  begin
     id 16
     name head
     direction -0.00606378 0.998665 -0.0512995  
     length 1.69269  
     axis 0 0 0   XYZ
    dof rx ry rz
    limits (-20.0 45.0)
           (-30.0 30.0)
           (-30.0 30.0)
  end
  begin
     id 17 
     name lclavicle
     direction 0.9638 0.179341 0.197297  
     length 4.12888  
     axis 0 0 0   XYZ
    dof ry rz
    limits (-20.0 10.0)
           (0.0 20.0)
  end
  begin
     id 18 
     name lhumerus
     direction 1 -4.48972e-011 -2.47351e-027   
     length 5.01834   
     axis -180 -30 -90   XYZ
    dof rx ry rz
    limits (-60.0 90.0)
           (-90.0 90.0)
           (-90.0 90.0)
  end
  begin
     id 19
     name lradius
     direction 1 -4.48965e-011 1.51591e-026   
     length 3.4869   
     axis -180 -30 -90   XYZ
    dof rx
    limits (-10.0 170.0)
  end
  begin
     id 20
     name lwrist
     direction 1 -4.48957e-011 2.70032e-026   
     length 1.74345   
     axis -1.81515e-014 90 90   XYZ
    dof ry
    limits (-180.0 0.0)
 end
  begin
     id 21 
     name lhand
     direction 1 -4.48951e-011 5.40064e-026   
     length 0.76799   
     axis -3.44607e-014 90 90   XYZ
    dof rx rz
    limits (-90.0 90.0)
           (-45.0 45.0)
  end
  begin
     id 22 
     name lfingers
     direction 1 -4.48971e-011 1.08013e-025   
     length 0.619174   
     axis -6.89214e-014 90 90   XYZ
    dof rx
    limits (0.0 90.0)
  end
  begin
     id 23
     name lthumb
     direction 0.707107 -6.34931e-011 0.707107   
     length 0.889013   
     axis -90 45 2.85299e-015   XYZ
    dof rx rz
    limits (-45.0 45.0)
           (-45.0 45.0)
  end
  begin
     id 24 
     name rclavicle
     direction -0.961409 0.252588 0.109054   
     length 4.04305  
     axis 0 0 0   XYZ 
    dof ry rz
    limits (-10.0 20.0)
           (-20.0 0.0)
  end
  begin
     id 25 
     name rhumerus
     direction -1 -4.4897e-011 1.33872e-017  
     length 4.70164   
     axis -180 30 90   XYZ
    dof rx ry rz
    limits (-90.0 60.0)
           (-90.0 90.0)
           (-90.0 90.0)
  end
  begin
     id 26 
     name rradius
     direction -1 -4.48954e-011 1.83844e-026   
     length 3.49911   
     axis -180 30 90   XYZ
    dof rx
    limits (-10.0 170.0)
  end
  begin
     id 27 
     name rwrist
     direction -1 -4.49008e-011 2.70032e-026   
     length 1.74955   
     axis -1.81515e-014 -90 -90   XYZ
    dof ry
    limits (-180.0 0.0)
  end
  begin
     id 28
     name rhand
     direction -1 -4.48916e-011 5.40064e-026   
     length 0.739335   
     axis -3.44607e-014 -90 -90   XYZ
    dof rx rz
    limits (-90.0 90.0)
           (-45.0 45.0)
  end
  begin
     id 29
     name rfingers
     direction -1 -4.48987e-011 1.08013e-025   
     length 0.596071   
     axis -6.89214e-014 -90 -90   XYZ
    dof rx
    limits (0.0 90.0)
  end
  begin
     id 30
     name rthumb
     direction -0.707107 -6.34935e-011 0.707107   
     length 0.855843   
     axis -90 -45 -2.85299e-015   XYZ
    dof rx rz
    limits (-45.0 45.0)
           (-45.0 45.0)
  end
:hierarchy
  begin
    root lhipjoint rhipjoint lowerback
    lhipjoint lfemur
    lfemur ltibia
    ltibia lfoot
    lfoot ltoes
    rhipjoint rfemur
    rfemur rtibia
    rtibia rfoot
    rfoot rtoes
    lowerback upperback
    upperback thorax
    thorax lowerneck lclavicle rclavicle
    lowerneck upperneck
    upperneck head
    lclavicle lhumerus
    lhumerus lradius
    lradius lwrist
    lwrist lhand lthumb
    lhand lfingers
    rclavicle rhumerus
    rhumerus rradius
    rradius rwrist
    rwrist rhand rthumb
    rhand rfingers
  end

#!OML:ASF I:\salsa\salsa 7_09\Patient 1\Session 1\dancermale.ASF
:FULLY-SPECIFIED
:DEGREES
554
root -0.792552 17.121 2.58194 340.748 84.0962 696.046
lowerback -1.46278 0.853429 1.20463
upperback 1.637 1.09826 0.795046
thorax 2.50581 0.566385 0.180624
lowerneck -19.9386 -6.19672 2.21922
upperneck 17.3294 63.4304 14.9807
head 216.551 -236.02 -364.411
rclavicle 4.76773e-016 -2.86995e-015
rhumerus -33.0806 41.5257 -113.24
rradius 98.4424
rwrist 24.6822
rhand -38.853 22.8123
rfingers 7.12502
rthumb -11.8619 -6.83175
lclavicle 4.76773e-016 -2.86995e-015
lhumerus -52.7298 -23.3881 111.606
lradius 95.5452
lwrist 20.4208
lhand -18.4821 42.0708
lfingers 7.12502
lthumb 7.80501 791.907
rfemur -16.2043 -3.04855 29.0471
rtibia 26.1306
rfoot -15.9962 -15.4087
rtoes 22.5733
lfemur -33.8189 4.95569 -14.3624
ltibia 73.2961
lfoot -6.14131 3.16457
ltoes 18.0702
555
root -0.892728 17.1286 2.59279 341.03 83.089 696.337
lowerback -1.56931 1.13085 0.846428
upperback 1.50121 1.47207 1.07347
thorax 2.41201 0.743643 0.680542
lowerneck -19.7055 -6.22197 2.23053
upperneck 17.2632 63.1609 14.9657
head 216.449 -236.032 -364.438
rclavicle 1.72842e-014 7.23079e-015
rhumerus -33.1326 42.5425 -115.44
rradius 98.572
rwrist 24.1536
rhand -39.3512 23.0056
rfingers 7.12502
rthumb -12.3423 -6.61008
lclavicle 1.72842e-014 7.23079e-015
lhumerus -55.1187 -22.8147 110.71
lradius 96.2081
lwrist 20.5415
lhand -18.7402 41.8953
lfingers 7.12502
lthumb 7.55594 791.74
rfemur -15.5798 -2.43093 29.5156
rtibia 24.4489
rfoot -15.3182 -14.8582
rtoes 21.5423
lfemur -32.3071 5.10253 -14.0173
ltibia 74.8793
lfoot -5.1 2.19021
ltoes 18.8119
556
root -1.00791 17.1336 2.5948 339.794 82.3434 695.154
lowerback -1.46308 1.35306 0.692405
upperback 1.37941 1.77147 1.38009
thorax 2.21136 0.888803 1.08681
lowerneck -19.5337 -6.29623 2.15479
upperneck 17.1075 62.875 14.8539
head 216.432 -236.18 -364.32
rclavicle -1.85926e-014 7.42958e-015
rhumerus -33.0726 43.5293 -117.27
rradius 98.6077
rwrist 23.8048
rhand -39.5588 23.232
rfingers 7.12502
rthumb -12.5424 -6.3715
lclavicle -1.85926e-014 7.42958e-015
lhumerus -57.3572 -22.58 109.908
lradius 96.8286
lwrist 20.6395
lhand -18.9216 41.8874
lfingers 7.12502
lthumb 7.38086 791.739
rfemur -15.0047 -1.68681 30.0526
rtibia 22.8221
rfoot -14.5829 -14.7413
rtoes 20.9921
lfemur -30.8131 5.03528 -13.6497
ltibia 75.9749
lfoot -3.95975 0.726038
ltoes 18.9994
557
root -1.13524 17.1324 2.58046 338.194 81.7587 693.386
lowerback -1.57174 1.56532 0.735514
upperback 1.28565 2.05005 1.70891
thorax 2.16219 1.02747 1.41073
lowerneck -19.4712 -6.37745 1.94288
upperneck 16.7566 62.4532 14.5498
head 216.249 -236.241 -364.352
rclavicle 1.91641e-014 0
rhumerus -32.8058 44.6179 -118.654
rradius 98.5889
rwrist 23.249
rhand -39.4763 23.0089
rfingers 7.12502
rthumb -12.4629 -6.59954
lclavicle 1.91641e-014 0
lhumerus -59.3512 -22.7998 109.191
lradius 97.4137
lwrist 20.6589
lhand -18.8323 41.625
lfingers 7.12502
lthumb 7.46699 791.473
rfemur -14.7639 -1.18126 30.601
rtibia 21.2357
rfoot -13.8234 -14.7135
rtoes 20.6921
lfemur -29.6272 5.03199 -13.3767
ltibia 76.6195
lfoot -2.90001 -0.383558
ltoes 20.4524
558
root -1.25503 17.1305 2.55583 337.369 81.0877 692.377
lowerback -1.85135 1.84397 0.830766
upperback 1.23852 2.41258 2.0356
thorax 2.25444 1.20907 1.71438
lowerneck -19.4557 -6.42236 1.61102
upperneck 16.5627 62.1669 14.4034
head 216.062 -236.565 -364.506
rclavicle -3.26752e-015 -2.48481e-015
rhumerus -32.6921 45.8421 -119.866
rradius 98.5407
rwrist 22.6809
rhand -39.493 22.3927
rfingers 7.12502
rthumb -12.479 -7.21471
lclavicle -3.26752e-015 -2.48481e-015
lhumerus -61.0867 -23.2444 108.49
lradius 97.9362
lwrist 20.4966
lhand -18.6601 41.5693
lfingers 7.12502
lthumb 7.63321 791.412
rfemur -14.4802 -1.10773 31.0532
rtibia 19.5894
rfoot -12.9763 -14.3504
rtoes 19.3924
lfemur -28.2178 5.33375 -13.2376
ltibia 76.5514
lfoot -2.53689 -0.60243
ltoes 21.0371
559
root -1.36096 17.1315 2.54687 335.575 80.9168 690.454
lowerback -2.22151 1.96958 0.644839
upperback 1.16023 2.57718 2.4014
thorax 2.35362 1.28745 2.21336
lowerneck -19.3338 -6.54244 1.27964
upperneck 16.4309 61.9104 14.2959
head 216.012 -236.972 -364.47
rclavicle -5.29264e-015 -3.06128e-014
rhumerus -32.9988 46.9804 -121.07
rradius 98.3891
rwrist 22.0115
rhand -39.2196 22.1143
rfingers 7.12502
rthumb -12.2154 -7.50897
lclavicle -5.29264e-015 -3.06128e-014
lhumerus -62.6961 -23.7473 107.849
lradius 98.3408
lwrist 20.1028
lhand -18.4533 41.6778
lfingers 7.12502
lthumb 7.8328 791.513
rfemur -13.8801 -1.28162 31.4184
rtibia 17.5571
rfoot -12.0924 -14.1988
rtoes 18.5555
lfemur -26.5101 5.26521 -13.0552
ltibia 75.8187
lfoot -2.90806 -0.324197
ltoes 20.7475
560
root -1.48029 17.1365 2.5266 333.805 80.6531 688.412
lowerback -2.51839 2.17212 0.652175
upperback 0.987827 2.84375 2.75955
thorax 2.31697 1.42158 2.59702
lowerneck -19.1976 -6.62983 0.833076
upperneck 16.5526 61.7878 14.4698
head 215.924 -237.75 -364.669
rclavicle -1.2424e-014 1.82882e-014
rhumerus -33.5287 47.9291 -122.112
rradius 98.2232
rwrist 21.4837
rhand -39.0556 21.8914
rfingers 7.12502
rthumb -12.0572 -7.7412
lclavicle -1.2424e-014 1.82882e-014
lhumerus -64.1234 -24.414 107.298
lradius 98.6434
lwrist 19.6313
lhand -18.1649 41.6486
lfingers 7.12502
lthumb 8.11115 791.473
rfemur -13.775 -1.53098 31.8361
rtibia 16.0267
rfoot -11.2863 -13.6967
rtoes 18.4383
lfemur -24.9187 5.26969 -12.848
ltibia 74.1068
lfoot -2.71745 0.328501
ltoes 22.6246
